<svg version="1.2" xmlns="http://www.w3.org/2000/svg" viewBox="0 0 100 100" width="100" height="100">
	<title>file-svg</title>
	<style>
		tspan { white-space:pre } 
		.s0 { fill: #000000 } 
		.t1 { font-size: 57px;fill: #ffeb00;font-weight: 400;font-family: "DejaVuSans", "DejaVu Sans" } 
		.t2 { font-size: 46px;fill: #ffeb00;font-weight: 400;font-family: "DejaVuSans", "DejaVu Sans" } 
		.t3 { font-size: 13px;fill: #000000;font-weight: 400;font-family: "LiberationSans", "Liberation Sans" } 
	</style>
	<path id="Layer" class="s0" d="m30 37c-2.8 0-5-2.2-5-5 0-2.8 2.2-5 5-5 2.8 0 5 2.2 5 5 0 2.8-2.2 5-5 5z"/>
	<g id="BMI">
		<text id="B" style="transform: matrix(1,0,0,1,9.478,68.435)" >
			<tspan x="0" y="0" class="t1">B
</tspan>
		</text>
		<text id="MI" style="transform: matrix(1,0,0,1,43.596,67.399)" >
			<tspan x="0" y="0" class="t2">M</tspan><tspan  y="0" class="t2">I</tspan><tspan  y="0" class="t2">
</tspan>
		</text>
	</g>
	<path id="Layer" class="s0" d="m70 37c-2.8 0-5-2.2-5-5 0-2.8 2.2-5 5-5 2.8 0 5 2.2 5 5 0 2.8-2.2 5-5 5z"/>
	<text id="Text layer 3" style="transform: matrix(1,0,0,1,119,38)" >
		<tspan x="0" y="15.6" class="t3">	
</tspan>
	</text>
</svg>